<?xml version="1.0" standalone="no"?>
<!DOCTYPE svg PUBLIC "-//W3C//DTD SVG 20010904//EN"
 "http://www.w3.org/TR/2001/REC-SVG-20010904/DTD/svg10.dtd">
<svg version="1.0" xmlns="http://www.w3.org/2000/svg"
 width="700.000000pt" height="700.000000pt" viewBox="0 0 700.000000 700.000000"
 preserveAspectRatio="xMidYMid meet">
<metadata>
Created by potrace 1.11, written by Peter Selinger 2001-2013
</metadata>
<g transform="translate(0.000000,700.000000) scale(0.100000,-0.100000)"
fill="#000000" stroke="none">
<path d="M3070 6974 c-145 -18 -345 -58 -475 -94 -60 -17 -141 -40 -180 -50
-210 -57 -627 -258 -850 -411 -132 -90 -193 -134 -236 -170 -24 -20 -69 -56
-99 -81 l-55 -44 -3 -147 -3 -147 -143 0 -144 0 -28 -34 c-90 -105 -156 -188
-193 -241 -82 -119 -156 -231 -171 -260 -9 -16 -37 -66 -63 -110 -59 -102
-174 -351 -220 -481 -103 -287 -180 -637 -203 -919 l-7 -81 103 -102 103 -103
-103 -104 -103 -103 7 -84 c16 -191 56 -416 108 -603 17 -60 39 -141 50 -180
43 -163 164 -435 299 -673 62 -108 147 -243 159 -252 3 -3 25 -33 48 -67 23
-34 68 -92 100 -130 32 -37 68 -83 81 -100 l22 -33 150 0 149 0 0 -149 0 -150
32 -22 c18 -13 63 -49 100 -80 69 -59 312 -229 383 -269 22 -12 79 -44 126
-71 156 -90 468 -225 606 -263 26 -7 100 -28 163 -45 217 -61 479 -106 645
-112 l70 -3 97 98 98 98 39 -31 c21 -17 67 -61 101 -98 l63 -67 71 2 c175 7
460 58 671 119 66 19 137 39 159 44 114 28 434 171 642 289 194 110 444 287
566 402 l28 26 0 141 0 141 145 0 144 0 28 36 c15 20 56 71 91 113 57 70 262
362 262 375 0 2 25 48 57 102 95 162 230 471 272 624 10 36 32 116 50 177 56
202 111 526 111 652 0 45 -2 48 -95 141 -52 52 -95 101 -95 108 0 8 43 57 95
109 108 107 105 98 85 263 -42 355 -129 693 -253 980 -136 318 -315 617 -512
855 -44 54 -84 103 -88 111 -6 11 -39 14 -152 14 l-145 0 0 139 c0 104 -3 143
-13 153 -34 32 -214 177 -270 216 -255 176 -445 282 -701 392 -310 132 -734
235 -1049 257 l-99 6 -98 -98 -98 -98 -41 32 c-22 18 -67 61 -99 97 l-59 64
-64 -1 c-35 -1 -111 -7 -169 -15z m857 -403 c235 -36 448 -89 618 -156 218
-86 235 -94 505 -242 66 -37 262 -176 360 -256 197 -162 480 -476 607 -676
229 -359 378 -719 456 -1101 72 -353 78 -831 16 -1210 -59 -357 -242 -816
-462 -1160 -90 -140 -257 -347 -388 -480 -165 -168 -415 -367 -579 -460 -115
-66 -289 -160 -296 -160 -4 0 -45 -17 -93 -39 -112 -50 -305 -117 -389 -136
-37 -8 -119 -25 -182 -39 -216 -46 -369 -59 -650 -53 -281 5 -409 22 -685 90
-210 52 -461 152 -663 265 -47 26 -108 59 -134 74 -44 24 -285 192 -298 207
-3 3 -32 28 -65 56 -207 172 -485 485 -603 680 -176 288 -269 483 -345 720
-120 375 -157 609 -157 1000 0 398 33 615 152 990 43 137 87 246 144 358 19
37 34 72 34 78 0 11 90 169 171 298 91 147 316 419 453 549 290 276 609 477
1016 641 202 82 505 152 777 181 144 15 528 4 680 -19z"/>
<path d="M3280 6543 c-129 -12 -397 -56 -481 -77 -86 -23 -214 -66 -369 -124
-144 -54 -363 -170 -522 -275 -242 -162 -446 -343 -638 -566 -134 -156 -338
-468 -416 -636 -199 -433 -295 -826 -311 -1275 -15 -442 69 -883 249 -1315 83
-197 190 -391 297 -540 28 -38 66 -92 85 -120 109 -158 433 -475 614 -603 170
-119 242 -163 389 -239 180 -93 197 -101 418 -178 611 -213 1348 -199 1956 39
318 124 577 276 824 481 194 162 374 353 524 557 90 122 248 383 269 443 7 22
17 44 22 50 22 27 124 290 163 422 90 298 126 518 134 823 6 232 -5 406 -38
599 -80 468 -284 956 -546 1309 -39 53 -84 113 -98 132 -14 19 -91 104 -172
188 -235 247 -507 449 -808 601 -239 121 -576 237 -760 262 -38 5 -115 16
-170 25 -98 15 -516 27 -615 17z m601 -147 c542 -74 1057 -307 1469 -664 77
-67 280 -272 318 -322 15 -19 43 -54 64 -78 90 -106 236 -342 335 -542 103
-210 205 -522 247 -760 55 -312 56 -759 1 -1060 -90 -492 -296 -946 -608
-1335 -44 -55 -94 -114 -111 -130 -17 -17 -47 -48 -66 -70 -44 -50 -246 -232
-280 -253 -14 -9 -45 -33 -70 -53 -117 -95 -367 -239 -553 -319 -354 -153
-652 -218 -1032 -227 -431 -11 -749 47 -1135 204 -164 67 -231 101 -382 191
-319 191 -633 482 -864 802 -22 30 -74 111 -116 180 -472 783 -557 1741 -231
2607 48 127 168 368 242 486 33 54 61 100 61 102 0 3 7 13 14 22 8 10 37 47
63 82 26 36 62 83 79 106 40 52 274 305 283 305 4 0 22 15 41 33 28 27 123
105 175 145 42 32 215 152 219 152 3 0 34 17 68 38 141 86 381 193 573 256
154 49 439 104 630 120 97 8 461 -4 566 -18z"/>
<path d="M3265 6379 c-140 -13 -370 -55 -480 -87 -91 -27 -158 -51 -355 -125
-71 -27 -141 -60 -218 -106 -27 -16 -76 -44 -108 -62 -78 -43 -272 -179 -359
-253 -206 -173 -497 -506 -594 -681 -18 -33 -39 -67 -46 -75 -16 -19 -100
-181 -148 -287 -82 -181 -128 -321 -183 -557 -103 -443 -96 -939 17 -1366 17
-63 35 -134 40 -157 4 -23 24 -83 44 -134 150 -388 334 -690 598 -979 108
-119 310 -300 407 -366 30 -20 82 -56 115 -79 33 -24 78 -53 100 -66 119 -68
267 -144 320 -164 304 -118 414 -151 650 -192 149 -26 179 -28 440 -28 290 0
338 4 577 50 177 35 499 144 648 220 143 73 420 246 440 275 3 4 10 9 17 11
49 16 394 348 480 461 15 20 49 63 75 96 120 151 296 461 381 672 69 171 151
482 183 692 21 142 30 516 15 675 -16 169 -53 365 -98 516 -19 67 -41 142 -48
167 -23 81 -57 163 -132 320 -170 357 -385 643 -683 911 -452 406 -995 641
-1610 698 -132 12 -353 12 -485 0z m430 -203 c70 -29 85 -128 29 -187 -15 -16
-33 -29 -40 -29 -18 0 -54 -49 -54 -73 0 -11 16 -51 35 -88 33 -65 65 -169 65
-216 0 -17 -15 -31 -65 -58 -36 -20 -74 -50 -86 -67 l-22 -30 7 -836 c3 -461
9 -895 12 -965 7 -145 10 -149 96 -169 100 -22 188 35 224 146 28 86 69 112
124 79 48 -28 65 -75 65 -178 0 -77 -5 -100 -29 -155 -16 -36 -42 -102 -59
-148 l-30 -83 17 -67 c9 -37 43 -124 76 -193 108 -228 113 -246 114 -394 1
-109 -2 -136 -18 -165 -52 -98 -147 -175 -268 -217 -64 -23 -93 -27 -244 -31
-225 -6 -420 11 -527 44 -183 58 -286 133 -344 252 -25 52 -28 67 -27 157 1
122 26 206 120 406 62 131 64 137 64 217 0 100 -10 153 -62 312 -38 115 -41
134 -42 240 -1 133 10 175 61 231 29 32 42 39 72 39 30 0 40 -5 54 -29 9 -16
17 -42 17 -58 0 -16 7 -54 16 -84 37 -124 169 -179 256 -106 l27 22 17 860 18
860 -28 43 c-15 24 -26 53 -24 65 2 17 -3 23 -24 25 -30 4 -53 26 -43 42 10
17 43 11 58 -11 17 -23 23 -18 32 31 6 34 5 36 -27 45 -18 6 -33 17 -33 25 0
21 29 24 48 5 22 -21 34 -19 41 8 11 42 6 53 -26 62 -18 6 -33 17 -33 25 0 21
43 26 51 6 10 -27 30 -18 41 18 12 39 9 46 -22 46 -30 0 -52 27 -37 42 13 13
62 -4 62 -22 0 -25 18 -6 29 31 13 44 6 58 -30 59 -16 0 -39 19 -39 32 0 15
60 8 66 -7 10 -25 22 -17 34 21 14 41 5 54 -38 54 -26 0 -40 26 -23 43 8 8 19
5 42 -12 35 -26 41 -22 59 32 8 27 21 42 43 52 42 18 109 18 152 1z m-70
-4446 l98 -100 809 0 c532 0 808 -3 808 -10 0 -7 -278 -10 -815 -10 l-814 0
-28 -35 c-15 -19 -60 -64 -100 -100 l-71 -65 -100 100 -99 100 -811 0 c-530 0
-813 3 -817 10 -4 7 269 10 811 10 l817 0 95 100 c52 55 100 100 106 100 7 0
56 -45 111 -100z"/>
<path d="M3145 3080 c-85 -44 -125 -103 -125 -185 0 -61 19 -103 67 -146 51
-47 100 -62 174 -57 67 5 128 40 166 97 39 57 34 61 -72 61 -78 0 -95 -3 -95
-15 0 -12 14 -15 70 -15 39 0 70 -4 70 -8 0 -15 -55 -61 -92 -76 -74 -31 -157
-9 -215 57 -57 65 -56 142 3 207 66 73 158 87 245 37 29 -17 41 -19 50 -10 9
9 1 18 -32 39 -59 37 -156 44 -214 14z"/>
<path d="M3626 2885 c-57 -20 -109 -67 -124 -111 -19 -53 -10 -158 15 -193 11
-14 39 -39 62 -55 38 -28 48 -30 125 -30 76 0 88 3 126 29 35 24 90 97 90 118
0 4 -45 7 -100 7 -82 0 -100 -3 -100 -15 0 -12 14 -15 70 -15 39 0 70 -3 70
-8 0 -20 -37 -56 -74 -73 -171 -78 -347 113 -235 255 47 60 176 87 239 51 14
-8 36 -14 50 -14 l25 0 -28 24 c-49 44 -138 56 -211 30z"/>
<path d="M3432 1723 c-45 -47 -81 -87 -79 -90 2 -2 78 -2 168 -1 l164 3 -85
87 -85 87 -83 -86z"/>
<path d="M3425 1528 c44 -45 81 -84 82 -87 4 -7 153 130 164 150 9 18 3 19
-158 19 l-168 0 80 -82z"/>
</g>
</svg>
